<?xml version="1.0" standalone="no"?>
<!DOCTYPE svg PUBLIC "-//W3C//DTD SVG 1.1//EN" "http://www.w3.org/Graphics/SVG/1.1/DTD/svg11.dtd">
<svg xmlns="http://www.w3.org/2000/svg" xmlns:xlink="http://www.w3.org/1999/xlink" width="375" zoomAndPan="magnify" viewBox="0 0 375 374.999991" height="375" preserveAspectRatio="xMidYMid meet" version="1.0"><defs><g/><clipPath id="d639e4c835"><path d="M 58.808594 199.925781 L 147.542969 199.925781 L 147.542969 273.679688 L 58.808594 273.679688 Z M 58.808594 199.925781 " clip-rule="nonzero"/></clipPath><clipPath id="29ae86fdfe"><path d="M 103.152344 199.925781 C 78.660156 199.925781 58.808594 216.4375 58.808594 236.800781 C 58.808594 257.167969 78.660156 273.679688 103.152344 273.679688 C 127.644531 273.679688 147.5 257.167969 147.5 236.800781 C 147.5 216.4375 127.644531 199.925781 103.152344 199.925781 Z M 103.152344 199.925781 " clip-rule="nonzero"/></clipPath><clipPath id="3853edce9c"><path d="M 58.808594 199.925781 L 147.308594 199.925781 L 147.308594 273.425781 L 58.808594 273.425781 Z M 58.808594 199.925781 " clip-rule="nonzero"/></clipPath><clipPath id="6467235a48"><path d="M 103.152344 199.925781 C 78.660156 199.925781 58.808594 216.433594 58.808594 236.796875 C 58.808594 257.164062 78.660156 273.671875 103.152344 273.671875 C 127.640625 273.671875 147.492188 257.164062 147.492188 236.796875 C 147.492188 216.433594 127.640625 199.925781 103.152344 199.925781 Z M 103.152344 199.925781 " clip-rule="nonzero"/></clipPath><clipPath id="a6561c8ad5"><path d="M 234 123 L 307 123 L 307 198 L 234 198 Z M 234 123 " clip-rule="nonzero"/></clipPath><clipPath id="0328a57be2"><path d="M 277.585938 98.339844 L 333.457031 149.039062 L 288.871094 198.175781 L 233 147.476562 Z M 277.585938 98.339844 " clip-rule="nonzero"/></clipPath><clipPath id="7430a68539"><path d="M 306.207031 125.820312 L 290.785156 195.515625 C 290.617188 196.273438 290.058594 196.882812 289.320312 197.117188 C 288.578125 197.351562 287.769531 197.175781 287.195312 196.65625 L 234.785156 149.097656 C 234.210938 148.574219 233.957031 147.789062 234.121094 147.027344 C 234.285156 146.269531 234.839844 145.65625 235.574219 145.414062 L 303.449219 123.316406 C 304.183594 123.082031 304.984375 123.253906 305.554688 123.769531 C 306.125 124.285156 306.371094 125.066406 306.207031 125.820312 Z M 306.207031 125.820312 " clip-rule="nonzero"/></clipPath><clipPath id="3bc2a3d29a"><path d="M 234 123 L 307 123 L 307 198 L 234 198 Z M 234 123 " clip-rule="nonzero"/></clipPath><clipPath id="e5ca2ce65a"><path d="M 278.035156 95.859375 L 335.796875 148.273438 L 289.933594 198.816406 L 232.167969 146.398438 Z M 278.035156 95.859375 " clip-rule="nonzero"/></clipPath><clipPath id="cf6af7c8b5"><path d="M 278.117188 97.585938 L 334.269531 148.539062 L 289.070312 198.347656 L 232.917969 147.394531 Z M 278.117188 97.585938 " clip-rule="nonzero"/></clipPath><clipPath id="aa67af296b"><path d="M 306.207031 125.816406 L 290.785156 195.507812 C 290.617188 196.265625 290.058594 196.878906 289.320312 197.113281 C 288.578125 197.347656 287.773438 197.171875 287.195312 196.652344 L 234.789062 149.09375 C 234.214844 148.574219 233.960938 147.785156 234.125 147.027344 C 234.285156 146.269531 234.839844 145.652344 235.578125 145.414062 L 303.449219 123.316406 C 304.179688 123.078125 304.984375 123.25 305.554688 123.769531 C 306.121094 124.285156 306.371094 125.066406 306.207031 125.816406 Z M 306.207031 125.816406 " clip-rule="nonzero"/></clipPath><clipPath id="0ada94a18c"><path d="M 81.847656 137.25 L 295.828125 137.25 L 295.828125 262.601562 L 81.847656 262.601562 Z M 81.847656 137.25 " clip-rule="nonzero"/></clipPath><clipPath id="dfd2ab2e67"><path d="M 99.097656 137.25 L 278.121094 137.25 C 282.695312 137.25 287.082031 139.066406 290.316406 142.300781 C 293.550781 145.535156 295.371094 149.925781 295.371094 154.5 L 295.371094 245.351562 C 295.371094 249.925781 293.550781 254.3125 290.316406 257.550781 C 287.082031 260.785156 282.695312 262.601562 278.121094 262.601562 L 99.097656 262.601562 C 94.523438 262.601562 90.132812 260.785156 86.898438 257.550781 C 83.664062 254.3125 81.847656 249.925781 81.847656 245.351562 L 81.847656 154.5 C 81.847656 149.925781 83.664062 145.535156 86.898438 142.300781 C 90.132812 139.066406 94.523438 137.25 99.097656 137.25 Z M 99.097656 137.25 " clip-rule="nonzero"/></clipPath><clipPath id="956264a682"><path d="M 111 147.515625 L 120 147.515625 L 120 156 L 111 156 Z M 111 147.515625 " clip-rule="nonzero"/></clipPath><clipPath id="f94268e5fc"><path d="M 103.152344 166 L 112 166 L 112 174.515625 L 103.152344 174.515625 Z M 103.152344 166 " clip-rule="nonzero"/></clipPath><clipPath id="d46bfc62d5"><path d="M 120 166 L 128.652344 166 L 128.652344 174.515625 L 120 174.515625 Z M 120 166 " clip-rule="nonzero"/></clipPath><clipPath id="5503906a95"><path d="M 257.1875 140.511719 L 287.1875 140.511719 L 287.1875 171 L 257.1875 171 Z M 257.1875 140.511719 " clip-rule="nonzero"/></clipPath></defs><g clip-path="url(#d639e4c835)"><g clip-path="url(#29ae86fdfe)"><path fill="#545454" d="M 58.808594 199.925781 L 147.542969 199.925781 L 147.542969 273.679688 L 58.808594 273.679688 Z M 58.808594 199.925781 " fill-opacity="1" fill-rule="nonzero"/></g></g><g clip-path="url(#3853edce9c)"><g clip-path="url(#6467235a48)"><path stroke-linecap="butt" transform="matrix(0.75, 0, 0, 0.75, 58.808259, 199.925288)" fill="none" stroke-linejoin="miter" d="M 59.12545 0.000657038 C 26.469198 0.000657038 0.000446282 22.011075 0.000446282 49.162119 C 0.000446282 76.31837 26.469198 98.328788 59.12545 98.328788 C 91.776494 98.328788 118.245246 76.31837 118.245246 49.162119 C 118.245246 22.011075 91.776494 0.000657038 59.12545 0.000657038 Z M 59.12545 0.000657038 " stroke="#ffffff" stroke-width="6" stroke-opacity="1" stroke-miterlimit="4"/></g></g><g clip-path="url(#a6561c8ad5)"><g clip-path="url(#0328a57be2)"><g clip-path="url(#7430a68539)"><path fill="#545454" d="M 278.035156 95.859375 L 336.082031 148.535156 L 290.058594 199.253906 L 232.011719 146.578125 Z M 278.035156 95.859375 " fill-opacity="1" fill-rule="nonzero"/></g></g></g><g clip-path="url(#3bc2a3d29a)"><g clip-path="url(#e5ca2ce65a)"><g clip-path="url(#cf6af7c8b5)"><g clip-path="url(#aa67af296b)"><path stroke-linecap="butt" transform="matrix(0.55541, 0.504004, -0.504004, 0.55541, 278.034889, 95.858351)" fill="none" stroke-linejoin="miter" d="M 54.659671 4.338002 L 101.876181 86.969075 C 102.389335 87.867836 102.387286 88.973891 101.868313 89.866817 C 101.345482 90.763244 100.393436 91.310684 99.357095 91.315705 L 4.998574 91.312949 C 3.966089 91.31447 3.008378 90.762855 2.491367 89.867594 C 1.970499 88.975832 1.96519 87.86942 2.480664 86.972637 L 49.696602 4.340533 C 50.204362 3.45075 51.152908 2.899453 52.181535 2.901432 C 53.202806 2.903053 54.14966 3.450454 54.659671 4.338002 Z M 54.659671 4.338002 " stroke="#ffffff" stroke-width="4" stroke-opacity="1" stroke-miterlimit="4"/></g></g></g></g><g clip-path="url(#0ada94a18c)"><g clip-path="url(#dfd2ab2e67)"><path fill="#545454" d="M 81.847656 137.25 L 295.339844 137.25 L 295.339844 262.601562 L 81.847656 262.601562 Z M 81.847656 137.25 " fill-opacity="1" fill-rule="nonzero"/></g></g><path fill="#ffffff" d="M 115.949219 159.628906 C 114.464844 159.628906 113.257812 160.835938 113.257812 162.320312 C 113.257812 163.808594 114.464844 165.011719 115.949219 165.011719 C 117.4375 165.011719 118.640625 163.808594 118.640625 162.320312 C 118.640625 160.835938 117.4375 159.628906 115.949219 159.628906 Z M 110.566406 162.320312 C 110.566406 159.347656 112.976562 156.9375 115.949219 156.9375 C 118.921875 156.9375 121.335938 159.347656 121.335938 162.320312 C 121.335938 165.292969 118.921875 167.703125 115.949219 167.703125 C 112.976562 167.703125 110.566406 165.292969 110.566406 162.320312 Z M 110.566406 162.320312 " fill-opacity="1" fill-rule="evenodd"/><g clip-path="url(#956264a682)"><path fill="#ffffff" d="M 115.949219 150.207031 C 115.207031 150.207031 114.605469 150.8125 114.605469 151.554688 C 114.605469 152.296875 115.207031 152.898438 115.949219 152.898438 C 116.695312 152.898438 117.296875 152.296875 117.296875 151.554688 C 117.296875 150.8125 116.695312 150.207031 115.949219 150.207031 Z M 111.914062 151.554688 C 111.914062 149.324219 113.71875 147.515625 115.949219 147.515625 C 118.179688 147.515625 119.988281 149.324219 119.988281 151.554688 C 119.988281 153.785156 118.179688 155.589844 115.949219 155.589844 C 113.71875 155.589844 111.914062 153.785156 111.914062 151.554688 Z M 111.914062 151.554688 " fill-opacity="1" fill-rule="evenodd"/></g><g clip-path="url(#f94268e5fc)"><path fill="#ffffff" d="M 107.203125 169.050781 C 106.457031 169.050781 105.855469 169.652344 105.855469 170.398438 C 105.855469 171.140625 106.457031 171.742188 107.203125 171.742188 C 107.945312 171.742188 108.546875 171.140625 108.546875 170.398438 C 108.546875 169.652344 107.945312 169.050781 107.203125 169.050781 Z M 103.164062 170.398438 C 103.164062 168.167969 104.972656 166.359375 107.203125 166.359375 C 109.433594 166.359375 111.238281 168.167969 111.238281 170.398438 C 111.238281 172.625 109.433594 174.433594 107.203125 174.433594 C 104.972656 174.433594 103.164062 172.625 103.164062 170.398438 Z M 103.164062 170.398438 " fill-opacity="1" fill-rule="evenodd"/></g><g clip-path="url(#d46bfc62d5)"><path fill="#ffffff" d="M 124.699219 169.050781 C 123.957031 169.050781 123.351562 169.652344 123.351562 170.398438 C 123.351562 171.140625 123.957031 171.742188 124.699219 171.742188 C 125.441406 171.742188 126.042969 171.140625 126.042969 170.398438 C 126.042969 169.652344 125.441406 169.050781 124.699219 169.050781 Z M 120.660156 170.398438 C 120.660156 168.167969 122.46875 166.359375 124.699219 166.359375 C 126.929688 166.359375 128.738281 168.167969 128.738281 170.398438 C 128.738281 172.625 126.929688 174.433594 124.699219 174.433594 C 122.46875 174.433594 120.660156 172.625 120.660156 170.398438 Z M 120.660156 170.398438 " fill-opacity="1" fill-rule="evenodd"/></g><path fill="#ffffff" d="M 115.949219 152.898438 C 116.695312 152.898438 117.296875 153.503906 117.296875 154.246094 L 117.296875 158.285156 C 117.296875 159.027344 116.695312 159.628906 115.949219 159.628906 C 115.207031 159.628906 114.605469 159.027344 114.605469 158.285156 L 114.605469 154.246094 C 114.605469 153.503906 115.207031 152.898438 115.949219 152.898438 Z M 115.949219 152.898438 " fill-opacity="1" fill-rule="evenodd"/><path fill="#ffffff" d="M 118.28125 164.652344 C 118.808594 164.128906 119.660156 164.128906 120.1875 164.652344 L 123.039062 167.507812 C 123.566406 168.035156 123.566406 168.886719 123.039062 169.410156 C 122.515625 169.9375 121.664062 169.9375 121.136719 169.410156 L 118.28125 166.554688 C 117.757812 166.03125 117.757812 165.179688 118.28125 164.652344 Z M 118.28125 164.652344 " fill-opacity="1" fill-rule="evenodd"/><path fill="#ffffff" d="M 113.617188 164.652344 C 113.09375 164.128906 112.242188 164.128906 111.714844 164.652344 L 108.859375 167.507812 C 108.335938 168.035156 108.335938 168.886719 108.859375 169.410156 C 109.386719 169.9375 110.238281 169.9375 110.761719 169.410156 L 113.617188 166.554688 C 114.144531 166.03125 114.144531 165.179688 113.617188 164.652344 Z M 113.617188 164.652344 " fill-opacity="1" fill-rule="evenodd"/><g clip-path="url(#5503906a95)"><path fill="#ffffff" d="M 272.152344 140.675781 C 271.003906 140.675781 270.09375 141.613281 270.09375 142.75 C 270.09375 143.222656 270.246094 143.648438 270.507812 144 C 269.550781 144.566406 268.921875 145.613281 268.921875 146.8125 L 268.921875 147.277344 C 268.921875 148.324219 269.757812 149.15625 270.785156 149.15625 L 273.519531 149.15625 C 274.542969 149.15625 275.382812 148.320312 275.382812 147.277344 L 275.382812 146.8125 C 275.382812 145.613281 274.753906 144.566406 273.796875 144 C 274.0625 143.648438 274.210938 143.222656 274.210938 142.75 C 274.210938 141.613281 273.300781 140.675781 272.152344 140.675781 Z M 272.152344 141.675781 C 272.730469 141.675781 273.210938 142.148438 273.210938 142.75 C 273.210938 143.355469 272.730469 143.828125 272.152344 143.828125 C 271.574219 143.828125 271.089844 143.355469 271.089844 142.75 C 271.089844 142.148438 271.574219 141.675781 272.152344 141.675781 Z M 271.394531 144.679688 C 271.636719 144.777344 271.890625 144.824219 272.152344 144.824219 C 272.414062 144.824219 272.648438 144.78125 272.914062 144.679688 C 273.753906 144.984375 274.382812 145.8125 274.382812 146.8125 L 274.382812 147.277344 C 274.382812 147.761719 274.003906 148.160156 273.519531 148.160156 L 270.785156 148.160156 C 270.300781 148.160156 269.921875 147.761719 269.921875 147.277344 L 269.921875 146.8125 C 269.921875 145.796875 270.570312 144.96875 271.394531 144.679688 Z M 266.140625 147.265625 C 266.058594 147.273438 265.984375 147.296875 265.917969 147.335938 C 262.042969 149.574219 259.679688 153.679688 259.679688 158.136719 C 259.691406 158.800781 260.660156 158.800781 260.679688 158.136719 C 260.679688 154.035156 262.863281 150.25 266.414062 148.203125 C 266.855469 147.945312 266.6875 147.265625 266.140625 147.265625 Z M 278.128906 147.265625 C 277.597656 147.304688 277.46875 147.945312 277.886719 148.203125 C 281.441406 150.25 283.625 154.035156 283.625 158.136719 C 283.625 158.800781 284.625 158.800781 284.625 158.136719 C 284.625 153.679688 282.246094 149.5625 278.386719 147.335938 C 278.316406 147.292969 278.234375 147.269531 278.128906 147.265625 Z M 272.152344 150.15625 C 267.71875 150.15625 264.167969 153.765625 264.167969 158.136719 C 264.167969 162.507812 267.714844 166.117188 272.152344 166.117188 C 276.59375 166.117188 280.128906 162.523438 280.128906 158.136719 C 280.128906 153.746094 276.585938 150.15625 272.152344 150.15625 Z M 270.679688 151.308594 C 269.875 152.046875 269.207031 152.910156 268.710938 153.867188 C 268.238281 153.644531 267.785156 153.378906 267.351562 153.066406 C 268.269531 152.203125 269.421875 151.582031 270.679688 151.308594 Z M 273.621094 151.3125 C 274.886719 151.582031 276.039062 152.199219 276.949219 153.0625 C 276.519531 153.378906 276.066406 153.648438 275.59375 153.871094 C 275.09375 152.914062 274.429688 152.046875 273.621094 151.3125 Z M 272.648438 151.785156 C 273.472656 152.46875 274.160156 153.3125 274.660156 154.238281 C 274.011719 154.453125 273.335938 154.585938 272.648438 154.628906 Z M 271.652344 151.792969 L 271.652344 154.632812 C 270.96875 154.585938 270.289062 154.457031 269.640625 154.242188 C 270.140625 153.316406 270.828125 152.476562 271.652344 151.792969 Z M 266.679688 153.804688 C 267.191406 154.183594 267.726562 154.511719 268.296875 154.78125 C 267.941406 155.683594 267.730469 156.644531 267.675781 157.636719 L 265.1875 157.636719 C 265.289062 156.191406 265.828125 154.871094 266.679688 153.804688 Z M 277.628906 153.804688 C 278.476562 154.875 279.011719 156.191406 279.113281 157.636719 L 276.625 157.636719 C 276.574219 156.644531 276.363281 155.683594 276.007812 154.777344 C 276.578125 154.511719 277.117188 154.183594 277.628906 153.804688 Z M 269.222656 155.152344 C 270 155.421875 270.820312 155.582031 271.652344 155.628906 L 271.652344 157.636719 L 268.675781 157.636719 C 268.726562 156.773438 268.914062 155.941406 269.222656 155.152344 Z M 275.082031 155.152344 C 275.390625 155.941406 275.578125 156.773438 275.628906 157.636719 L 272.648438 157.636719 L 272.648438 155.628906 C 273.480469 155.582031 274.296875 155.421875 275.082031 155.152344 Z M 265.1875 158.636719 L 267.675781 158.636719 C 267.730469 159.628906 267.941406 160.59375 268.300781 161.5 C 267.730469 161.761719 267.1875 162.089844 266.675781 162.46875 C 265.828125 161.402344 265.289062 160.082031 265.1875 158.636719 Z M 268.675781 158.636719 L 271.652344 158.636719 L 271.652344 160.644531 C 270.820312 160.691406 270.003906 160.855469 269.222656 161.121094 C 268.914062 160.332031 268.726562 159.5 268.675781 158.636719 Z M 272.648438 158.636719 L 275.628906 158.636719 C 275.578125 159.5 275.390625 160.332031 275.082031 161.121094 C 274.300781 160.855469 273.476562 160.691406 272.648438 160.644531 Z M 276.625 158.636719 L 279.113281 158.636719 C 279.011719 160.082031 278.472656 161.398438 277.625 162.46875 C 277.117188 162.089844 276.574219 161.761719 276.003906 161.5 C 276.359375 160.59375 276.574219 159.628906 276.625 158.636719 Z M 261.179688 160.132812 C 259.796875 160.132812 258.683594 161.25 258.683594 162.625 C 258.683594 163.238281 258.90625 163.804688 259.28125 164.242188 C 258.035156 164.914062 257.1875 166.246094 257.1875 167.773438 L 257.1875 168.355469 C 257.1875 169.589844 258.175781 170.605469 259.433594 170.605469 L 262.921875 170.605469 C 264.160156 170.605469 265.164062 169.613281 265.164062 168.355469 L 265.164062 167.773438 C 265.164062 166.246094 264.328125 164.921875 263.074219 164.246094 C 263.449219 163.808594 263.671875 163.242188 263.671875 162.625 C 263.671875 161.25 262.558594 160.132812 261.179688 160.132812 Z M 283.125 160.273438 C 281.742188 160.273438 280.632812 161.398438 280.632812 162.769531 C 280.632812 163.34375 280.820312 163.867188 281.152344 164.289062 C 279.9375 164.976562 279.132812 166.292969 279.132812 167.773438 L 279.132812 168.355469 C 279.132812 169.589844 280.128906 170.605469 281.378906 170.605469 L 284.871094 170.605469 C 286.128906 170.605469 287.117188 169.589844 287.117188 168.355469 L 287.117188 167.773438 C 287.117188 166.277344 286.3125 164.976562 285.101562 164.289062 C 285.433594 163.867188 285.621094 163.332031 285.621094 162.769531 C 285.621094 161.398438 284.507812 160.273438 283.125 160.273438 Z M 261.179688 161.128906 C 261.996094 161.128906 262.675781 161.792969 262.675781 162.625 C 262.675781 163.457031 262 164.121094 261.179688 164.121094 C 260.355469 164.121094 259.679688 163.457031 259.679688 162.625 C 259.679688 161.792969 260.359375 161.128906 261.179688 161.128906 Z M 283.125 161.273438 C 283.945312 161.273438 284.625 161.933594 284.625 162.769531 C 284.625 163.601562 283.945312 164.269531 283.125 164.269531 C 282.308594 164.269531 281.628906 163.601562 281.628906 162.769531 C 281.628906 161.933594 282.308594 161.273438 283.125 161.273438 Z M 271.652344 161.644531 L 271.652344 164.488281 C 270.828125 163.804688 270.140625 162.960938 269.640625 162.035156 C 270.289062 161.824219 270.96875 161.6875 271.652344 161.644531 Z M 272.648438 161.644531 C 273.335938 161.6875 274.007812 161.820312 274.660156 162.035156 C 274.160156 162.960938 273.480469 163.800781 272.652344 164.484375 Z M 268.710938 162.40625 C 269.207031 163.363281 269.875 164.226562 270.679688 164.960938 C 269.402344 164.6875 268.265625 164.074219 267.351562 163.207031 C 267.785156 162.894531 268.238281 162.628906 268.710938 162.40625 Z M 275.59375 162.40625 C 276.066406 162.628906 276.523438 162.894531 276.953125 163.210938 C 276.054688 164.0625 274.894531 164.691406 273.621094 164.964844 C 274.429688 164.222656 275.09375 163.363281 275.59375 162.40625 Z M 262.148438 164.925781 C 263.3125 165.316406 264.167969 166.433594 264.167969 167.773438 L 264.167969 168.355469 C 264.167969 169.046875 263.621094 169.609375 262.921875 169.609375 L 259.433594 169.609375 C 258.742188 169.609375 258.183594 169.058594 258.183594 168.355469 L 258.183594 167.773438 C 258.183594 166.433594 259.039062 165.316406 260.207031 164.925781 C 260.503906 165.046875 260.84375 165.121094 261.179688 165.121094 C 261.515625 165.121094 261.851562 165.046875 262.148438 164.925781 Z M 281.988281 164.988281 C 282.324219 165.160156 282.722656 165.265625 283.125 165.265625 C 283.527344 165.265625 283.925781 165.160156 284.265625 164.988281 C 285.339844 165.421875 286.121094 166.496094 286.121094 167.773438 L 286.121094 168.355469 C 286.121094 169.058594 285.5625 169.609375 284.871094 169.609375 L 281.378906 169.609375 C 280.695312 169.609375 280.128906 169.058594 280.128906 168.355469 L 280.128906 167.773438 C 280.128906 166.496094 280.929688 165.414062 281.988281 164.988281 Z M 267.53125 168.703125 C 267.015625 168.753906 266.902344 169.453125 267.386719 169.660156 C 270.4375 170.921875 273.863281 170.921875 276.914062 169.660156 C 277.414062 169.445312 277.269531 168.738281 276.757812 168.703125 C 276.679688 168.703125 276.605469 168.707031 276.535156 168.742188 C 273.726562 169.902344 270.574219 169.902344 267.765625 168.742188 C 267.691406 168.707031 267.617188 168.699219 267.53125 168.703125 " fill-opacity="1" fill-rule="nonzero"/></g><g fill="#ffffff" fill-opacity="1"><g transform="translate(96.482595, 239.048802)"><g><path d="M 4.15625 -2.484375 C 5.914062 -2.535156 7.171875 -2.9375 7.921875 -3.6875 C 8.679688 -4.445312 9.109375 -5.34375 9.203125 -6.375 C 9.304688 -7.40625 9.359375 -9.207031 9.359375 -11.78125 L 9.359375 -44.390625 C 9.359375 -46.503906 9.4375 -48.316406 9.59375 -49.828125 L 4.15625 -49.53125 L 4.15625 -52.84375 L 40.46875 -52.84375 L 40.84375 -39.640625 L 38.359375 -39.640625 C 38.359375 -43.765625 37.460938 -46.582031 35.671875 -48.09375 C 33.890625 -49.601562 31.382812 -50.304688 28.15625 -50.203125 L 21.671875 -50.0625 C 19.859375 -50.007812 18.546875 -49.664062 17.734375 -49.03125 C 16.929688 -48.40625 16.429688 -47.523438 16.234375 -46.390625 C 16.035156 -45.265625 15.9375 -43.492188 15.9375 -41.078125 L 15.9375 -28.984375 L 30.125 -28.921875 L 29.59375 -35.40625 L 32.921875 -35.40625 L 32.921875 -19.546875 L 30.421875 -19.546875 C 30.421875 -21.410156 30.191406 -22.832031 29.734375 -23.8125 C 29.285156 -24.800781 28.597656 -25.457031 27.671875 -25.78125 C 26.742188 -26.113281 25.445312 -26.28125 23.78125 -26.28125 L 21.4375 -26.203125 L 15.9375 -25.96875 L 15.9375 -8.6875 C 15.9375 -6.0625 15.859375 -4.097656 15.703125 -2.796875 L 30.125 -3.015625 C 33.644531 -3.066406 36.335938 -3.960938 38.203125 -5.703125 C 40.066406 -7.441406 41 -10.445312 41 -14.71875 L 43.5625 -14.71875 L 43.109375 0 L 4.15625 0 Z M 4.15625 -2.484375 "/></g></g></g><g fill="#ffffff" fill-opacity="1"><g transform="translate(143.438742, 239.048802)"><g><path d="M 28.390625 -8.6875 C 24.566406 -17.1875 21.597656 -23.890625 19.484375 -28.796875 C 17.367188 -33.710938 15.300781 -38.882812 13.28125 -44.3125 L 13.21875 -41 C 12.757812 -26.25 12.476562 -15.726562 12.375 -9.4375 C 12.375 -8.6875 12.351562 -8.132812 12.3125 -7.78125 C 12.3125 -6.0625 12.234375 -4.472656 12.078125 -3.015625 L 17.75 -3.328125 L 17.75 0 L 3.328125 0 L 3.328125 -2.484375 C 5.441406 -2.535156 6.8125 -3.128906 7.4375 -4.265625 C 8.0625 -5.398438 8.425781 -7.125 8.53125 -9.4375 L 10.1875 -49.828125 L 4.75 -49.609375 L 4.75 -52.84375 L 16.3125 -52.84375 L 26.578125 -29.140625 C 30.296875 -20.378906 33.164062 -13.738281 35.1875 -9.21875 L 35.328125 -9.21875 C 35.929688 -10.71875 37.21875 -13.960938 39.1875 -18.953125 C 41.09375 -23.785156 43.28125 -29.09375 45.75 -34.875 C 48.625 -41.625 51.09375 -47.613281 53.15625 -52.84375 L 64.328125 -52.84375 L 64.328125 -50.359375 C 62.515625 -50.410156 61.179688 -49.921875 60.328125 -48.890625 C 59.472656 -47.859375 59.046875 -46.109375 59.046875 -43.640625 L 59.109375 -42.125 L 61.078125 -7.78125 C 61.179688 -6.625 61.234375 -5.0625 61.234375 -3.09375 L 66.734375 -3.328125 L 66.734375 0 L 49.828125 0 L 49.828125 -2.484375 C 51.796875 -2.535156 53.128906 -3.101562 53.828125 -4.1875 C 54.535156 -5.269531 54.890625 -6.96875 54.890625 -9.28125 C 54.890625 -10.238281 54.863281 -10.96875 54.8125 -11.46875 L 52.84375 -43.640625 C 52.75 -43.390625 52.613281 -43.0625 52.4375 -42.65625 C 52.257812 -42.25 52.070312 -41.769531 51.875 -41.21875 L 34.875 0.75 L 32.609375 0.75 Z M 28.390625 -8.6875 "/></g></g></g><g fill="#ffffff" fill-opacity="1"><g transform="translate(212.740576, 239.048802)"><g><path d="M 7.921875 -39.40625 L 6.953125 -42.359375 C 5.742188 -46.128906 5.007812 -48.566406 4.75 -49.671875 L 0.53125 -49.53125 L 0.53125 -52.84375 L 18.875 -52.84375 L 18.875 -50.359375 C 16.8125 -50.253906 15.351562 -49.910156 14.5 -49.328125 C 13.644531 -48.753906 13.21875 -47.816406 13.21875 -46.515625 C 13.21875 -45.304688 13.46875 -43.84375 13.96875 -42.125 C 14.875 -38.757812 16.082031 -34.984375 17.59375 -30.796875 C 17.84375 -30.046875 18.144531 -29.15625 18.5 -28.125 C 18.851562 -27.09375 19.253906 -25.894531 19.703125 -24.53125 C 20.003906 -23.476562 20.378906 -22.320312 20.828125 -21.0625 C 21.285156 -19.800781 21.613281 -18.894531 21.8125 -18.34375 C 22.820312 -15.625 23.578125 -13.460938 24.078125 -11.859375 L 24.234375 -11.859375 C 25.242188 -15.273438 26.273438 -18.59375 27.328125 -21.8125 C 29.140625 -27.65625 31.128906 -33.820312 33.296875 -40.3125 C 35.554688 -47.113281 36.914062 -51.34375 37.375 -53 L 39.78125 -53 C 40.382812 -50.9375 41.414062 -47.703125 42.875 -43.296875 C 44.34375 -38.890625 45.40625 -35.707031 46.0625 -33.75 C 47.5625 -29.414062 48.59375 -26.34375 49.15625 -24.53125 C 49.550781 -23.175781 50.203125 -21.140625 51.109375 -18.421875 C 52.117188 -15.503906 52.925781 -13.015625 53.53125 -10.953125 L 53.75 -10.953125 C 54.957031 -14.878906 55.988281 -18.125 56.84375 -20.6875 C 59.414062 -27.988281 61.507812 -34.28125 63.125 -39.5625 C 63.675781 -41.425781 64.175781 -42.988281 64.625 -44.25 C 65.582031 -46.8125 66.363281 -48.644531 66.96875 -49.75 L 60.921875 -49.53125 L 60.921875 -52.84375 L 76.25 -52.84375 L 76.25 -50.359375 C 74.4375 -50.160156 73.066406 -49.78125 72.140625 -49.21875 C 71.210938 -48.664062 70.378906 -47.671875 69.640625 -46.234375 C 68.910156 -44.804688 67.992188 -42.457031 66.890625 -39.1875 L 63.046875 -27.703125 C 59.015625 -15.472656 55.765625 -5.988281 53.296875 0.75 L 51.03125 0.75 L 36.921875 -39.640625 L 23.625 0.75 L 21.4375 0.75 Z M 7.921875 -39.40625 "/></g></g></g></svg>